<svg xmlns="http://www.w3.org/2000/svg" version="1.1" xmlns:xlink="http://www.w3.org/1999/xlink" xmlns:svgjs="http://svgjs.dev/svgjs" width="1000" height="1000" viewBox="0 0 1000 1000"><rect width="1000" height="1000" fill="#111111"></rect><g transform="matrix(0.7,0,0,0.7,150.11896067415722,431.11188000000004)"><svg viewBox="0 0 356 70" data-background-color="#111111" preserveAspectRatio="xMidYMid meet" height="196" width="1000" xmlns="http://www.w3.org/2000/svg" xmlns:xlink="http://www.w3.org/1999/xlink"><g id="tight-bounds" transform="matrix(1,0,0,1,-0.06049999999996203,0.14699999999999136)"><svg viewBox="0 0 356.12052 69.70556595933456" height="69.70556595933456" width="356.12052"><g><svg viewBox="0 0 356.12052 69.70556595933456" height="69.70556595933456" width="356.12052"><g><svg viewBox="0 0 356.12052 69.70556595933456" height="69.70556595933456" width="356.12052"><g><path d="M0 69.706v-69.706h356.121v69.706z" fill="#de0c17" stroke="transparent" stroke-width="0" rx="0%" data-fill-palette-color="tertiary"></path><path d="M3.283 66.422v-63.139h349.554v63.139z" fill="#111111" stroke="transparent" stroke-width="0" rx="0%" data-fill-palette-color="quaternary"></path><path d="M9.85 59.856v-50.006h336.421v50.006z" fill="#de0c17" stroke="transparent" stroke-width="0" data-fill-palette-color="tertiary"></path></g><g transform="matrix(1,0,0,1,19.69974,19.69974)" id="textblocktransform"><svg viewBox="0 0 316.72104 30.30608595933457" height="30.30608595933457" width="316.72104" id="textblock"><g><svg viewBox="0 0 316.72104 30.30608595933457" height="30.30608595933457" width="316.72104"><g transform="matrix(1,0,0,1,0,0)"><svg width="316.72104" viewBox="2.44 -34.52 396.22 37.910000000000004" height="30.30608595933457" data-palette-color="#111111"><path d="M2.44-15.19L2.44-15.19Q2.44-17.21 2.97-19.19 3.49-21.17 4.55-22.95 5.62-24.73 7.2-26.26 8.79-27.78 10.91-28.89 13.04-30 15.71-30.63 18.38-31.25 21.58-31.25L21.58-31.25Q23.29-31.25 24.98-30.98 26.66-30.71 28.21-30.24 29.76-29.76 31.14-29.08 32.52-28.39 33.59-27.56L33.59-27.56 33.59-30.4 39.14-30.4 39.14-21.61 33.59-21.61Q32.81-22.85 31.54-23.91 30.27-24.98 28.66-25.73 27.05-26.49 25.15-26.92 23.24-27.34 21.19-27.34L21.19-27.34Q17.97-27.34 15.59-26.32 13.21-25.29 11.65-23.6 10.08-21.9 9.31-19.71 8.54-17.53 8.54-15.19L8.54-15.19Q8.54-12.55 9.52-10.34 10.5-8.13 12.24-6.54 13.99-4.96 16.41-4.06 18.82-3.17 21.73-3.17L21.73-3.17Q24.37-3.17 26.51-3.69 28.66-4.2 30.35-5.16 32.03-6.13 33.26-7.52 34.5-8.91 35.33-10.64L35.33-10.64 39.09-8.11Q36.82-3.76 32.46-1.51 28.1 0.73 21.51 0.73L21.51 0.73Q17.36 0.73 13.87-0.49 10.38-1.71 7.84-3.86 5.3-6.01 3.87-8.91 2.44-11.82 2.44-15.19ZM35.06-18.97L35.06-19.9 40.89-19.9 40.89-29.15 41.87-29.15 41.87-18.97 35.06-18.97ZM10.3-15.21L10.3-15.21Q10.3-17.48 11.11-19.38 11.91-21.29 13.37-22.68 14.82-24.07 16.83-24.85 18.85-25.63 21.29-25.63L21.29-25.63Q24.49-25.63 26.92-24.65 29.35-23.66 30.81-21.83L30.81-21.83Q28.69-23.32 26.31-24.01 23.93-24.71 21.19-24.71L21.19-24.71Q18.87-24.71 17.03-23.95 15.19-23.19 13.9-21.91 12.62-20.63 11.95-18.93 11.28-17.24 11.28-15.36L11.28-15.36Q11.28-13.53 11.78-11.95 12.28-10.38 13.37-9.06 14.45-7.74 16.19-6.67 17.92-5.59 20.41-4.79L20.41-4.79Q18.12-5.1 16.25-5.98 14.38-6.86 13.06-8.2 11.74-9.55 11.02-11.32 10.3-13.09 10.3-15.21ZM8.4-1.17L8.4-1.17Q9.57-0.37 11.12 0.31 12.67 0.98 14.39 1.45 16.11 1.93 17.96 2.19 19.8 2.44 21.56 2.44L21.56 2.44Q24.68 2.44 27.5 1.9 30.32 1.37 32.68 0.33 35.03-0.71 36.84-2.23 38.65-3.76 39.75-5.71L39.75-5.71 40.6-5.2Q39.48-3.17 37.62-1.57 35.77 0.02 33.31 1.12 30.86 2.22 27.87 2.8 24.88 3.37 21.51 3.37L21.51 3.37Q19.58 3.37 17.68 3.09 15.77 2.81 14.05 2.23 12.33 1.66 10.88 0.82 9.42-0.02 8.4-1.17ZM46.46-11.4L46.46-11.4Q46.46-14.06 47.6-16.42 48.75-18.77 50.82-20.52 52.88-22.27 55.76-23.28 58.64-24.29 62.08-24.29L62.08-24.29Q65.7-24.29 68.54-23.33 71.38-22.36 73.35-20.65 75.31-18.95 76.35-16.6 77.39-14.26 77.39-11.5L77.39-11.5Q77.39-8.84 76.25-6.59 75.12-4.35 73.03-2.72 70.94-1.1 68.03-0.18 65.11 0.73 61.52 0.73L61.52 0.73Q58.13 0.73 55.36-0.28 52.59-1.29 50.61-2.98 48.63-4.66 47.54-6.85 46.46-9.03 46.46-11.4ZM50.29-1.12L50.29-1.12Q52.66 0.59 55.53 1.51 58.4 2.44 62.01 2.44L62.01 2.44Q65.38 2.44 68.48 1.53 71.58 0.61 73.95-1.17 76.32-2.95 77.73-5.55 79.15-8.15 79.15-11.5L79.15-11.5Q79.15-13.13 78.7-14.81 78.24-16.48 77.43-18.02 76.61-19.56 75.44-20.89 74.27-22.22 72.82-23.14L72.82-23.14Q74.46-22.41 75.82-21.22 77.17-20.02 78.12-18.49 79.07-16.97 79.6-15.19 80.12-13.4 80.12-11.5L80.12-11.5Q80.12-9.11 79.44-7.07 78.76-5.03 77.55-3.38 76.34-1.73 74.67-0.46 73 0.81 70.99 1.65 68.99 2.49 66.73 2.93 64.48 3.37 62.13 3.37L62.13 3.37Q60.18 3.37 58.4 3.06 56.61 2.76 55.09 2.19 53.56 1.61 52.34 0.78 51.12-0.05 50.29-1.12ZM51.88-11.5L51.88-11.5Q51.88-9.62 52.6-8.07 53.32-6.52 54.64-5.41 55.95-4.3 57.8-3.69 59.64-3.08 61.89-3.08L61.89-3.08Q64.16-3.08 66.01-3.7 67.87-4.32 69.21-5.43 70.55-6.54 71.29-8.09 72.02-9.64 72.02-11.5L72.02-11.5Q72.02-13.33 71.29-14.95 70.55-16.58 69.24-17.81 67.92-19.04 66.07-19.76 64.23-20.48 62.01-20.48L62.01-20.48Q59.69-20.48 57.82-19.79 55.95-19.09 54.64-17.88 53.32-16.67 52.6-15.04 51.88-13.4 51.88-11.5ZM53.59-11.4L53.59-11.4Q53.59-12.94 54.2-14.29 54.81-15.65 55.92-16.64 57.03-17.63 58.58-18.2 60.13-18.77 62.01-18.77L62.01-18.77Q63.21-18.77 64.33-18.52 65.45-18.26 66.4-17.77 67.36-17.29 68.09-16.59 68.82-15.89 69.26-15.01L69.26-15.01Q67.65-16.48 65.9-17.16 64.16-17.85 61.96-17.85L61.96-17.85Q60.37-17.85 59.03-17.33 57.69-16.82 56.69-15.94 55.69-15.06 55.12-13.89 54.56-12.72 54.56-11.4L54.56-11.4Q54.56-10.3 54.83-9.35 55.1-8.4 55.75-7.58 56.39-6.76 57.47-6.1 58.54-5.44 60.15-4.93L60.15-4.93Q58.69-5.03 57.48-5.55 56.27-6.08 55.41-6.93 54.54-7.79 54.06-8.94 53.59-10.08 53.59-11.4ZM85.74-11.33L85.74-11.33Q85.74-13.92 86.85-16.26 87.96-18.6 89.97-20.39 91.99-22.17 94.83-23.23 97.68-24.29 101.12-24.29L101.12-24.29Q104-24.29 106.33-23.52 108.66-22.75 110.64-21.36L110.64-21.36 110.64-23.54 115.89-23.54 115.89-15.97 110.88-15.97Q110.2-16.82 109.2-17.64 108.2-18.46 106.94-19.09 105.68-19.73 104.19-20.12 102.7-20.51 101.04-20.51L101.04-20.51Q98.92-20.51 97.09-19.82 95.26-19.14 93.92-17.92 92.57-16.7 91.8-15.04 91.04-13.38 91.04-11.43L91.04-11.43Q91.04-9.4 91.85-7.84 92.67-6.27 94.11-5.21 95.55-4.15 97.53-3.6 99.51-3.05 101.83-3.05L101.83-3.05Q105.59-3.05 108.48-4.25 111.37-5.44 113.64-7.93L113.64-7.93 116.23-4.98Q113.57-2.12 110.05-0.7 106.54 0.73 101.95 0.73L101.95 0.73Q98.09 0.73 95.08-0.13 92.06-1 89.99-2.59 87.91-4.17 86.82-6.4 85.74-8.62 85.74-11.33ZM112.08-13.33L112.08-14.26 117.65-14.26 117.65-22.51 118.62-22.51 118.62-13.33 112.08-13.33ZM92.79-11.43L92.79-11.43Q92.79-13.06 93.43-14.42 94.06-15.77 95.17-16.75 96.28-17.72 97.8-18.26 99.31-18.8 101.07-18.8L101.07-18.8Q102.12-18.8 103.19-18.6 104.27-18.41 105.22-18.05 106.17-17.7 106.93-17.21 107.69-16.72 108.12-16.14L108.12-16.14Q106.66-16.92 104.99-17.4 103.32-17.87 101.17-17.87L101.17-17.87Q99.46-17.87 98.09-17.35 96.72-16.82 95.76-15.94 94.79-15.06 94.28-13.89 93.77-12.72 93.77-11.43L93.77-11.43Q93.77-10.13 94.17-9.14 94.58-8.15 95.33-7.36 96.09-6.57 97.19-5.97 98.29-5.37 99.68-4.88L99.68-4.88Q98.07-5.03 96.78-5.57 95.5-6.1 94.62-6.95 93.75-7.79 93.27-8.92 92.79-10.06 92.79-11.43ZM89.23-1.12L89.23-1.12Q90.4-0.27 91.84 0.4 93.28 1.07 94.93 1.53 96.58 1.98 98.36 2.22 100.14 2.47 101.97 2.47L101.97 2.47Q104.17 2.47 106.28 2.11 108.39 1.76 110.25 1.1 112.1 0.44 113.64-0.5 115.18-1.44 116.25-2.61L116.25-2.61 116.96-1.98Q114.3 0.73 110.51 2.06 106.71 3.39 101.92 3.39L101.92 3.39Q99.95 3.39 97.99 3.1 96.04 2.81 94.33 2.23 92.62 1.66 91.29 0.82 89.96-0.02 89.23-1.12ZM124.58-11.4L124.58-11.4Q124.58-14.06 125.72-16.42 126.87-18.77 128.94-20.52 131-22.27 133.88-23.28 136.76-24.29 140.2-24.29L140.2-24.29Q143.82-24.29 146.66-23.33 149.5-22.36 151.47-20.65 153.43-18.95 154.47-16.6 155.51-14.26 155.51-11.5L155.51-11.5Q155.51-8.84 154.37-6.59 153.24-4.35 151.15-2.72 149.06-1.1 146.15-0.18 143.23 0.73 139.64 0.73L139.64 0.73Q136.25 0.73 133.48-0.28 130.71-1.29 128.73-2.98 126.75-4.66 125.66-6.85 124.58-9.03 124.58-11.4ZM128.41-1.12L128.41-1.12Q130.78 0.59 133.65 1.51 136.52 2.44 140.13 2.44L140.13 2.44Q143.5 2.44 146.6 1.53 149.7 0.61 152.07-1.17 154.44-2.95 155.85-5.55 157.27-8.15 157.27-11.5L157.27-11.5Q157.27-13.13 156.82-14.81 156.36-16.48 155.55-18.02 154.73-19.56 153.56-20.89 152.39-22.22 150.94-23.14L150.94-23.14Q152.58-22.41 153.94-21.22 155.29-20.02 156.24-18.49 157.19-16.97 157.72-15.19 158.24-13.4 158.24-11.5L158.24-11.5Q158.24-9.11 157.56-7.07 156.88-5.03 155.67-3.38 154.46-1.73 152.79-0.46 151.12 0.81 149.11 1.65 147.11 2.49 144.85 2.93 142.6 3.37 140.25 3.37L140.25 3.37Q138.3 3.37 136.52 3.06 134.73 2.76 133.21 2.19 131.68 1.61 130.46 0.78 129.24-0.05 128.41-1.12ZM130-11.5L130-11.5Q130-9.62 130.72-8.07 131.44-6.52 132.76-5.41 134.07-4.3 135.92-3.69 137.76-3.08 140.01-3.08L140.01-3.08Q142.28-3.08 144.13-3.7 145.99-4.32 147.33-5.43 148.67-6.54 149.41-8.09 150.14-9.64 150.14-11.5L150.14-11.5Q150.14-13.33 149.41-14.95 148.67-16.58 147.36-17.81 146.04-19.04 144.19-19.76 142.35-20.48 140.13-20.48L140.13-20.48Q137.81-20.48 135.94-19.79 134.07-19.09 132.76-17.88 131.44-16.67 130.72-15.04 130-13.4 130-11.5ZM131.71-11.4L131.71-11.4Q131.71-12.94 132.32-14.29 132.93-15.65 134.04-16.64 135.15-17.63 136.7-18.2 138.25-18.77 140.13-18.77L140.13-18.77Q141.33-18.77 142.45-18.52 143.57-18.26 144.52-17.77 145.48-17.29 146.21-16.59 146.94-15.89 147.38-15.01L147.38-15.01Q145.77-16.48 144.02-17.16 142.28-17.85 140.08-17.85L140.08-17.85Q138.49-17.85 137.15-17.33 135.81-16.82 134.81-15.94 133.81-15.06 133.24-13.89 132.68-12.72 132.68-11.4L132.68-11.4Q132.68-10.3 132.95-9.35 133.22-8.4 133.87-7.58 134.51-6.76 135.59-6.1 136.66-5.44 138.27-4.93L138.27-4.93Q136.81-5.03 135.6-5.55 134.39-6.08 133.53-6.93 132.66-7.79 132.18-8.94 131.71-10.08 131.71-11.4ZM196.44 0L196.44-3.91 203.04-3.91 203.04-26.49 196.44-26.49 196.44-30.4 212.31-30.4 223.76-10.13 234.41-30.4 250.28-30.4 250.28-26.49 243.74-26.49 243.74-3.91 250.28-3.91 250.28 0 232.58 0 232.58-3.91 238.19-3.91 238.19-26.71 225.08-1.73 222.13-1.73 208.58-25.93 208.58-3.91 214.15-3.91 214.15 0 196.44 0ZM245.44-5.37L245.44-24.78 252.04-24.78 252.04-29.17 253.01-29.17 253.01-23.85 246.42-23.85 246.42-5.37 245.44-5.37ZM224.11-13.18L215.07-29.15 216.15-29.15 224.67-14.21 224.11-13.18ZM197.91-23.85L197.91-24.78 202.01-24.78 202.01-23.85 197.91-23.85ZM223.84 0L226.23 0 237.02-20.61 237.02-18.58 226.86 0.93 224.35 0.93 223.84 0ZM210.29-5.37L210.29-20.31 211.26-18.58 211.26-5.37 210.29-5.37ZM234.04 1.71L252.04 1.71 252.04-2.54 253.01-2.54 253.01 2.64 234.04 2.64 234.04 1.71ZM197.91 1.71L215.9 1.71 215.9-2.54 216.88-2.54 216.88 2.64 197.91 2.64 197.91 1.71ZM258.87-11.4L258.87-11.4Q258.87-14.06 260.02-16.42 261.16-18.77 263.23-20.52 265.29-22.27 268.17-23.28 271.05-24.29 274.49-24.29L274.49-24.29Q278.11-24.29 280.95-23.33 283.8-22.36 285.76-20.65 287.73-18.95 288.76-16.6 289.8-14.26 289.8-11.5L289.8-11.5Q289.8-8.84 288.67-6.59 287.53-4.35 285.44-2.72 283.36-1.1 280.44-0.18 277.52 0.73 273.93 0.73L273.93 0.73Q270.54 0.73 267.77-0.28 265-1.29 263.02-2.98 261.04-4.66 259.96-6.85 258.87-9.03 258.87-11.4ZM262.7-1.12L262.7-1.12Q265.07 0.59 267.94 1.51 270.81 2.44 274.42 2.44L274.42 2.44Q277.79 2.44 280.89 1.53 283.99 0.61 286.36-1.17 288.73-2.95 290.14-5.55 291.56-8.15 291.56-11.5L291.56-11.5Q291.56-13.13 291.11-14.81 290.66-16.48 289.84-18.02 289.02-19.56 287.85-20.89 286.68-22.22 285.24-23.14L285.24-23.14Q286.87-22.41 288.23-21.22 289.58-20.02 290.53-18.49 291.49-16.97 292.01-15.19 292.54-13.4 292.54-11.5L292.54-11.5Q292.54-9.11 291.85-7.07 291.17-5.03 289.96-3.38 288.75-1.73 287.08-0.46 285.41 0.81 283.41 1.65 281.4 2.49 279.15 2.93 276.89 3.37 274.54 3.37L274.54 3.37Q272.59 3.37 270.81 3.06 269.03 2.76 267.5 2.19 265.97 1.61 264.75 0.78 263.53-0.05 262.7-1.12ZM264.29-11.5L264.29-11.5Q264.29-9.62 265.01-8.07 265.73-6.52 267.05-5.41 268.37-4.3 270.21-3.69 272.05-3.08 274.3-3.08L274.3-3.08Q276.57-3.08 278.42-3.7 280.28-4.32 281.62-5.43 282.97-6.54 283.7-8.09 284.43-9.64 284.43-11.5L284.43-11.5Q284.43-13.33 283.7-14.95 282.97-16.58 281.65-17.81 280.33-19.04 278.49-19.76 276.64-20.48 274.42-20.48L274.42-20.48Q272.1-20.48 270.23-19.79 268.37-19.09 267.05-17.88 265.73-16.67 265.01-15.04 264.29-13.4 264.29-11.5ZM266-11.4L266-11.4Q266-12.94 266.61-14.29 267.22-15.65 268.33-16.64 269.44-17.63 270.99-18.2 272.54-18.77 274.42-18.77L274.42-18.77Q275.62-18.77 276.74-18.52 277.86-18.26 278.82-17.77 279.77-17.29 280.5-16.59 281.23-15.89 281.67-15.01L281.67-15.01Q280.06-16.48 278.32-17.16 276.57-17.85 274.37-17.85L274.37-17.85Q272.79-17.85 271.44-17.33 270.1-16.82 269.1-15.94 268.1-15.06 267.54-13.89 266.97-12.72 266.97-11.4L266.97-11.4Q266.97-10.3 267.24-9.35 267.51-8.4 268.16-7.58 268.81-6.76 269.88-6.1 270.95-5.44 272.57-4.93L272.57-4.93Q271.1-5.03 269.89-5.55 268.68-6.08 267.82-6.93 266.95-7.79 266.47-8.94 266-10.08 266-11.4ZM313.58 0L301.59-19.9 296.32-19.9 296.32-23.56 313.07-23.56 313.07-19.9 307.82-19.9 317.12-4 326.08-19.9 320.49-19.9 320.49-23.56 336.75-23.56 336.75-19.9 331.72-19.9 319.93 0 313.58 0ZM315.29 1.71L321.1 1.71 332.89-18.19 338.51-18.19 338.51-22.19 339.48-22.19 339.48-17.26 333.52-17.26 321.73 2.64 315.65 2.64 315.29 1.71ZM317.48-6.98L311.14-18.19 315.29-18.19 314.82-22.19 315.8-22.19 315.8-17.26 312.85-17.26 318.05-7.91 317.48-6.98ZM321.68-17.26L321.68-18.19 323.88-18.19 323.32-17.26 321.68-17.26ZM297.78-17.26L297.78-18.19 301.32-18.19 301.88-17.26 297.78-17.26ZM348.15-29.64L348.15-34.52 354.13-34.52 354.13-29.64 348.15-29.64ZM349.61-27L349.61-27.93 355.89-27.93 355.89-33.15 356.86-33.15 356.86-27 349.61-27ZM343.02 0L343.02-3.66 349.61-3.66 348.88-19.41 343.02-19.41 343.02-23.56 354.13-23.56 354.13-3.66 359.74-3.66 359.74 0 343.02 0ZM355.84-5.13L355.84-22.31 356.81-22.31 356.81-5.13 355.84-5.13ZM344.48-16.77L344.48-17.7 347.85-17.7 347.85-16.77 344.48-16.77ZM344.48 1.71L361.5 1.71 361.5-2.29 362.48-2.29 362.48 2.64 344.48 2.64 344.48 1.71ZM365.89-11.33L365.89-11.33Q365.89-13.92 366.85-16.26 367.8-18.6 369.7-20.39 371.61-22.17 374.44-23.23 377.27-24.29 381.01-24.29L381.01-24.29Q384.52-24.29 387.28-23.35 390.04-22.41 391.97-20.63 393.9-18.85 394.91-16.27 395.92-13.7 395.92-10.4L395.92-10.4 371.24-10.4Q371.46-8.64 372.37-7.28 373.29-5.91 374.71-4.97 376.12-4.03 377.92-3.54 379.71-3.05 381.66-3.05L381.66-3.05Q383.25-3.05 384.9-3.31 386.55-3.56 388.01-4 389.48-4.44 390.62-4.99 391.77-5.54 392.38-6.13L392.38-6.13 393.31-6.13 395.6-3.64Q393.09-1.49 389.49-0.38 385.89 0.73 381.54 0.73L381.54 0.73Q377.76 0.73 374.84-0.2 371.92-1.12 369.93-2.76 367.94-4.39 366.92-6.59 365.89-8.79 365.89-11.33ZM373.58-8.69L397.58-8.69Q397.63-9.06 397.66-9.48 397.68-9.91 397.68-10.4L397.68-10.4Q397.68-12.48 397.25-14.37 396.83-16.26 396.01-17.88 395.19-19.51 393.99-20.85 392.8-22.19 391.28-23.14L391.28-23.14Q392.89-22.51 394.25-21.4 395.6-20.29 396.58-18.7 397.56-17.11 398.11-15.04 398.66-12.96 398.66-10.4L398.66-10.4Q398.66-10.21 398.64-9.91 398.63-9.62 398.61-9.25 398.58-8.89 398.55-8.51 398.51-8.13 398.46-7.76L398.46-7.76 375.39-7.76Q375.85-6.98 377.1-6.16 378.34-5.35 380.32-4.79L380.32-4.79Q379.1-4.79 378.04-5.08 376.98-5.37 376.11-5.88 375.24-6.4 374.6-7.12 373.95-7.84 373.58-8.69L373.58-8.69ZM371.39-13.45L390.28-13.45Q389.89-15.14 389.07-16.46 388.26-17.77 387.06-18.66 385.86-19.56 384.33-20.03 382.79-20.51 380.96-20.51L380.96-20.51Q378.98-20.51 377.36-19.98 375.73-19.46 374.51-18.52 373.29-17.58 372.5-16.28 371.7-14.99 371.39-13.45L371.39-13.45ZM374.73-14.5L373.61-14.5Q374.51-16.5 376.45-17.65 378.39-18.8 380.96-18.8L380.96-18.8Q382.01-18.8 383-18.63 383.98-18.46 384.83-18.1 385.67-17.75 386.3-17.24 386.94-16.72 387.3-16.06L387.3-16.06Q385.91-16.99 384.33-17.43 382.74-17.87 380.91-17.87L380.91-17.87Q378.78-17.87 377.17-16.99 375.56-16.11 374.73-14.5L374.73-14.5ZM368.85-1.07L368.85-1.07Q371.22 0.61 374.35 1.54 377.49 2.47 381.54 2.47L381.54 2.47Q385.5 2.47 388.95 1.56 392.41 0.66 395.19-1.2L395.19-1.2 395.85-0.49Q392.7 1.64 389.22 2.51 385.74 3.39 381.93 3.39L381.93 3.39Q376.98 3.39 373.72 2.2 370.46 1 368.85-1.07Z" opacity="1" transform="matrix(1,0,0,1,0,0)" fill="#111111" class="undefined-text-0" data-fill-palette-color="quaternary" id="text-0"></path></svg></g></svg></g></svg></g></svg></g><g></g></svg></g><defs></defs></svg><rect width="356.12052" height="69.70556595933456" fill="none" stroke="none" visibility="hidden"></rect></g></svg></g></svg>